<svg xmlns="http://www.w3.org/2000/svg" xmlns:xlink="http://www.w3.org/1999/xlink" viewBox="0 0 128 128" fill="#00FF20">
  <path d="M124 1C122.3 1 121 2.3 121 4L121 31L94 31C92.3 31 91 32.3 91 34L91 61L64 61C62.3 61 61 62.3 61 64L61 91L34 91C32.3 91 31 92.3 31 94L31 121L4 121C2.3 121 1 122.3 1 124C1 125.7 2.3 127 4 127L34 127C35.7 127 37 125.7 37 124L37 97L64 97C65.7 97 67 95.7 67 94L67 67L94 67C95.7 67 97 65.7 97 64L97 37L124 37C125.7 37 127 35.7 127 34L127 4C127 2.3 125.7 1 124 1 z M 86.861328 1.6425781C86.606641 1.6316406 86.349609 1.6492187 86.099609 1.6992188L47.599609 11.300781C46.599609 11.600781 45.700391 12.400391 45.400391 13.400391C45.100391 14.400391 45.399219 15.600781 46.199219 16.300781L53.599609 23.699219L22.900391 54.900391C21.700391 56.100391 21.700391 57.999609 22.900391 59.099609C23.500391 59.699609 24.2 60 25 60C25.8 60 26.499609 59.699609 27.099609 59.099609L60 25.900391C60.1 25.800391 60.099219 25.699609 60.199219 25.599609L60.400391 25.400391C60.500391 25.300391 60.5 25.199609 60.5 25.099609C60.5 24.999609 60.599609 24.900391 60.599609 24.900391C60.599609 24.800391 60.699219 24.699609 60.699219 24.599609C60.699219 24.499609 60.800781 24.400781 60.800781 24.300781L60.800781 24L60.800781 23.699219L60.800781 23.400391L60.800781 23.099609C60.800781 22.999609 60.699219 22.900781 60.699219 22.800781C60.699219 22.700781 60.699609 22.6 60.599609 22.5C60.599609 22.4 60.500391 22.299219 60.400391 22.199219C60.400391 22.099219 60.300781 22 60.300781 22C60.200781 21.9 60.099609 21.799219 60.099609 21.699219C59.999609 21.599219 60 21.6 60 21.5L54.300781 15.800781L82.800781 8.6992188L75.699219 37.199219L69.300781 30.800781C68.200781 29.700781 66.199609 29.700781 65.099609 30.800781L2.0996094 93.800781C0.89960938 95.000781 0.89960938 96.9 2.0996094 98C2.4996094 98.7 3.2 99 4 99C4.8 99 5.4996094 98.699609 6.0996094 98.099609L67 37.199219L75.099609 45.300781C75.899609 46.000781 77 46.3 78 46C79 45.7 79.799609 44.900781 80.099609 43.800781L89.699219 5.3007812C89.999219 4.3007812 89.700391 3.2 88.900391 2.5C88.375391 1.975 87.625391 1.6753906 86.861328 1.6425781 z M 6.2011719 72.027344C5.6199219 71.982812 5.025 72.100391 4.5 72.400391C3.1 73.200391 2.6003906 75.1 3.4003906 76.5L3.5996094 76.900391C4.1996094 77.900391 5.1992188 78.400391 6.1992188 78.400391C6.6992188 78.400391 7.1992188 78.3 7.6992188 78C9.0992187 77.2 9.6007813 75.300391 8.8007812 73.900391L8.5996094 73.5C8.0996094 72.625 7.1699219 72.101562 6.2011719 72.027344 z" fill="#00FF20" />
</svg>