<svg xmlns="http://www.w3.org/2000/svg" xmlns:xlink="http://www.w3.org/1999/xlink" viewBox="0 0 26 26" fill="#00FF20">
  <path d="M13 0C11.300781 0 10 1.300781 10 3L10 9C10 10.699219 11.300781 12 13 12L19 12L23 16L23 12C24.699219 12 26 10.699219 26 9L26 3C26 1.300781 24.699219 0 23 0 Z M 17.1875 3L18.90625 3L20.59375 9L19.09375 9L18.6875 7.5L17.1875 7.5L16.8125 9L15.5 9 Z M 18 4C17.898438 4.398438 17.789063 4.886719 17.6875 5.1875L17.40625 6.5L18.59375 6.5L18.3125 5.1875C18.113281 4.886719 18 4.398438 18 4 Z M 3 10C1.300781 10 0 11.300781 0 13L0 19C0 20.699219 1.300781 22 3 22L3 26L7 22L13 22C14.699219 22 16 20.699219 16 19L16 13L13 13C11.101563 13 9.59375 11.699219 9.09375 10 Z M 7.59375 12.90625C9.292969 12.90625 10.09375 14.304688 10.09375 15.90625C10.09375 17.304688 9.613281 18.195313 8.8125 18.59375C9.210938 18.792969 9.6875 18.898438 10.1875 19L9.8125 20C9.113281 19.800781 8.386719 19.488281 7.6875 19.1875C7.585938 19.085938 7.414063 19.09375 7.3125 19.09375C6.113281 18.992188 5 18 5 16C5 14.300781 5.992188 12.90625 7.59375 12.90625 Z M 7.59375 14C6.792969 14 6.40625 14.898438 6.40625 16C6.40625 17.199219 6.792969 18 7.59375 18C8.394531 18 8.8125 17.101563 8.8125 16C8.8125 14.898438 8.394531 14 7.59375 14Z" fill="#00FF20" />
</svg>