<svg xmlns="http://www.w3.org/2000/svg" xmlns:xlink="http://www.w3.org/1999/xlink" viewBox="0 0 32 32" fill="#00FF20">
  <path d="M24 4C21.800781 4 20 5.800781 20 8L20 9L22 9L22 8C22 6.882813 22.882813 6 24 6C25.128906 6 26 6.847656 26 8C26 9.027344 25.585938 9.339844 24.9375 9.78125C24.613281 10.003906 24.25 10.21875 23.875 10.5C23.5 10.78125 23 11.273438 23 12L23 13L25 13L25 12.125C25.011719 12.117188 25.003906 12.136719 25.0625 12.09375C25.25 11.953125 25.636719 11.730469 26.0625 11.4375C26.914063 10.851563 28 9.746094 28 8C28 5.785156 26.1875 4 24 4 Z M 13 9C9.699219 9 7 11.699219 7 15C7 16.945313 7.933594 18.683594 9.375 19.78125C6.214844 21.179688 4 24.332031 4 28L6 28C6 24.121094 9.121094 21 13 21C16.878906 21 20 24.121094 20 28L22 28C22 24.332031 19.785156 21.179688 16.625 19.78125C18.066406 18.683594 19 16.945313 19 15C19 11.699219 16.300781 9 13 9 Z M 13 11C15.222656 11 17 12.777344 17 15C17 17.222656 15.222656 19 13 19C10.777344 19 9 17.222656 9 15C9 12.777344 10.777344 11 13 11 Z M 24 14.5C23.171875 14.5 22.5 15.171875 22.5 16C22.5 16.828125 23.171875 17.5 24 17.5C24.828125 17.5 25.5 16.828125 25.5 16C25.5 15.171875 24.828125 14.5 24 14.5Z" fill="#00FF20" />
</svg>