<svg xmlns="http://www.w3.org/2000/svg" xmlns:xlink="http://www.w3.org/1999/xlink" viewBox="0 0 24 24" fill="#00FF20">
  <path d="M3 3L3 4C3 8.539 4.8407969 12.873203 7.9667969 16.033203C11.126797 19.159203 15.461 21 20 21L21 21L21 15.488281L15.75 14.849609L13.210938 17.380859C11.678937 16.573859 10.451109 15.632891 9.4121094 14.587891C8.3671094 13.548891 7.4261406 12.321063 6.6191406 10.789062L9.1503906 8.25L8.5117188 3L3 3 z M 12 3L12 5C15.866 5 19 8.134 19 12L21 12C21 7.029 16.971 3 12 3 z M 12 7L12 9C13.657 9 15 10.343 15 12L17 12C17 9.239 14.761 7 12 7 z" fill="#00FF20" />
</svg>