<svg xmlns="http://www.w3.org/2000/svg" xmlns:xlink="http://www.w3.org/1999/xlink" viewBox="0 0 30 30" fill="#00FF20">
  <path d="M20 3C16.134 3 13 6.134 13 10C13 10.890826 13.173144 11.739732 13.476562 12.523438L7 19C4.8026661 19 3 20.802666 3 23C3 25.197334 4.8026661 27 7 27C9.1973339 27 11 25.197334 11 23L17.476562 16.523438C18.260268 16.826856 19.109174 17 20 17C23.866 17 27 13.866 27 10C27 9.109 26.826438 8.2605625 26.523438 7.4765625L23 11L19 11L19 7L22.523438 3.4765625C21.739437 3.1735625 20.891 3 20 3 z M 7 21C8.1166661 21 9 21.883334 9 23C9 24.116666 8.1166661 25 7 25C5.8833339 25 5 24.116666 5 23C5 21.883334 5.8833339 21 7 21 z" fill="#00FF20" />
</svg>